<svg width="26" height="26" viewBox="0 0 26 26" fill="none" xmlns="http://www.w3.org/2000/svg">
<rect width="26" height="26" rx="13" fill="white"/>
<rect x="1" y="1" width="24" height="24" rx="12" fill="black"/>
<path d="M14.2 19V17.1052C14.2 16.7702 14.0736 16.4489 13.8485 16.212C13.6235 15.9751 13.3183 15.842 13 15.842C12.6817 15.842 12.3765 15.9751 12.1515 16.212C11.9264 16.4489 11.8 16.7702 11.8 17.1052V19M16.6 13.3156H16.606M16.6 15.842H16.606M9.4 13.3156H9.406M9.4 15.842H9.406M19 10.1576C19 9.99006 18.9368 9.82941 18.8243 9.71096C18.7117 9.59251 18.5591 9.52596 18.4 9.52596H17.2C16.9548 9.52593 16.7154 9.44679 16.5142 9.29922L13.6858 7.22693C13.4846 7.07931 13.2453 7.00011 13.0001 7C12.7549 6.99989 12.5155 7.07886 12.3142 7.2263L9.4858 9.29859C9.28465 9.44639 9.0453 9.52574 8.8 9.52596H7.6C7.44087 9.52596 7.28826 9.59251 7.17574 9.71096C7.06321 9.82941 7 9.99006 7 10.1576V17.7368C7 18.0718 7.12643 18.3931 7.35147 18.63C7.57652 18.8669 7.88174 19 8.2 19H17.8C18.1183 19 18.4235 18.8669 18.6485 18.63C18.8736 18.3931 19 18.0718 19 17.7368V10.1576ZM14.2 12.0524C14.2 12.75 13.6627 13.3156 13 13.3156C12.3373 13.3156 11.8 12.75 11.8 12.0524C11.8 11.3547 12.3373 10.7892 13 10.7892C13.6627 10.7892 14.2 11.3547 14.2 12.0524Z" stroke="white" stroke-linecap="round" stroke-linejoin="round"/>
</svg>
