<svg width="34" height="46" viewBox="0 0 34 46" fill="none" xmlns="http://www.w3.org/2000/svg">
<path d="M0.765028 24.4504C2.96615 32.3347 13.5174 42.7561 16.2757 45.3802C16.6506 45.7368 17.2227 45.7368 17.5977 45.3802C20.356 42.7561 30.9072 32.3347 33.1083 24.4504C35.6458 15.3615 32.2699 0 16.9367 0C1.60343 0 -1.77241 15.3615 0.765028 24.4504Z" fill="#E7000B"/>
<path d="M18.5944 24.8648V22.3784C18.5944 21.9387 18.4197 21.5171 18.1089 21.2062C17.798 20.8953 17.3764 20.7207 16.9367 20.7207C16.4971 20.7207 16.0755 20.8953 15.7646 21.2062C15.4537 21.5171 15.2791 21.9387 15.2791 22.3784V24.8648M21.9097 17.4054H21.918M21.9097 20.7207H21.918M11.9638 17.4054H11.972M11.9638 20.7207H11.972M25.225 13.2612C25.225 13.0414 25.1377 12.8306 24.9823 12.6752C24.8268 12.5197 24.616 12.4324 24.3962 12.4324H22.7385C22.3998 12.4324 22.0691 12.3285 21.7912 12.1349L17.8841 9.41547C17.6062 9.22175 17.2756 9.11782 16.9369 9.11768C16.5981 9.11753 16.2674 9.22117 15.9894 9.41464L12.0823 12.134C11.8044 12.328 11.4738 12.4321 11.1349 12.4324H9.47727C9.25745 12.4324 9.04663 12.5197 8.8912 12.6752C8.73576 12.8306 8.64844 13.0414 8.64844 13.2612V23.2072C8.64844 23.6468 8.82308 24.0685 9.13395 24.3793C9.44483 24.6902 9.86646 24.8648 10.3061 24.8648H23.5674C24.007 24.8648 24.4286 24.6902 24.7395 24.3793C25.0504 24.0685 25.225 23.6468 25.225 23.2072V13.2612ZM18.5944 15.7477C18.5944 16.6632 17.8522 17.4054 16.9367 17.4054C16.0212 17.4054 15.2791 16.6632 15.2791 15.7477C15.2791 14.8322 16.0212 14.0901 16.9367 14.0901C17.8522 14.0901 18.5944 14.8322 18.5944 15.7477Z" stroke="white" stroke-width="1.5" stroke-linecap="round" stroke-linejoin="round"/>
</svg>
